<svg xmlns="http://www.w3.org/2000/svg" width="72" height="72" viewBox="0 0 72 72">
  <g id="swap-btn" transform="translate(-647 -395)">
    <g id="arrows-exchange" transform="translate(664.322 411.864)">
      <path id="Path_34" data-name="Path 34" d="M7.637,19.476a1.647,1.647,0,0,0-.874,3.044l4.426,4.427a1.648,1.648,0,1,0,2.329-2.331l-1.846-1.845H24.108a1.647,1.647,0,1,0,0-3.294H7.637Z" transform="translate(0 1)" fill="#16bdbc"/>
      <path id="Path_35" data-name="Path 35" d="M30.129,17.234A1.647,1.647,0,0,0,31,14.19L26.576,9.763a1.648,1.648,0,0,0-2.329,2.331l1.846,1.845H13.657a1.647,1.647,0,0,0,0,3.294H30.128Z" transform="translate(0.59 0)" fill="#16bdbc"/>
    </g>
    <g id="Ellipse_23" data-name="Ellipse 23" transform="translate(647 395)" fill="none" stroke="#16bdbc" stroke-width="1">
      <circle cx="36" cy="36" r="36" stroke="none"/>
      <circle cx="36" cy="36" r="35.5" fill="none"/>
    </g>
  </g>
</svg>
